<?xml version="1.0" encoding="UTF-8"?>
<!DOCTYPE svg PUBLIC "-//W3C//DTD SVG 1.1//EN" "http://www.w3.org/Graphics/SVG/1.1/DTD/svg11.dtd">
<svg xmlns="http://www.w3.org/2000/svg" version="1.1" viewBox="0 0 73 73" stroke="none">
	<rect width="100%" height="100%" fill="#ffffff"/>
	<path d="M20,20h7v1h-7z M30,20h2v1h-2z M33,20h1v3h-1z M36,20h2v3h-2z M39,20h1v1h-1z M41,20h4v1h-4z M46,20h7v1h-7z M20,21h1v6h-1z M26,21h1v6h-1z M34,21h2v1h-2z M44,21h1v1h-1z M46,21h1v6h-1z M52,21h1v6h-1z M22,22h3v3h-3z M28,22h2v3h-2z M32,22h1v2h-1z M35,22h1v4h-1z M38,22h2v1h-2z M41,22h1v1h-1z M43,22h1v1h-1z M48,22h3v3h-3z M30,23h2v1h-2z M34,23h1v1h-1z M36,23h1v1h-1z M39,23h2v1h-2z M42,23h1v2h-1z M33,24h1v2h-1z M38,24h1v1h-1z M43,24h1v1h-1z M28,25h1v3h-1z M31,25h2v1h-2z M34,25h1v2h-1z M36,25h1v2h-1z M40,25h2v1h-2z M21,26h5v1h-5z M30,26h1v2h-1z M32,26h1v2h-1z M38,26h1v1h-1z M40,26h1v1h-1z M42,26h1v1h-1z M44,26h1v1h-1z M47,26h5v1h-5z M31,27h1v1h-1z M35,27h1v2h-1z M41,27h1v1h-1z M20,28h1v2h-1z M22,28h5v1h-5z M29,28h1v1h-1z M33,28h2v1h-2z M36,28h3v1h-3z M40,28h1v1h-1z M43,28h1v2h-1z M46,28h5v1h-5z M23,29h2v2h-2z M27,29h1v7h-1z M30,29h1v4h-1z M31,29h1v1h-1z M36,29h1v1h-1z M39,29h1v1h-1z M41,29h1v3h-1z M44,29h4v1h-4z M49,29h2v1h-2z M52,29h1v1h-1z M25,30h2v1h-2z M28,30h1v3h-1z M35,30h1v1h-1z M38,30h1v1h-1z M40,30h1v2h-1z M42,30h1v3h-1z M45,30h2v2h-2z M48,30h1v3h-1z M50,30h1v2h-1z M20,31h1v1h-1z M22,31h1v1h-1z M25,31h1v1h-1z M31,31h1v5h-1z M32,31h1v1h-1z M34,31h1v1h-1z M39,31h1v1h-1z M44,31h1v1h-1z M49,31h1v3h-1z M52,31h1v1h-1z M23,32h2v1h-2z M26,32h1v1h-1z M29,32h1v2h-1z M35,32h1v2h-1z M38,32h1v1h-1z M45,32h1v1h-1z M20,33h3v1h-3z M32,33h1v1h-1z M34,33h1v3h-1z M36,33h1v1h-1z M40,33h1v1h-1z M43,33h2v1h-2z M46,33h2v1h-2z M51,33h2v1h-2z M21,34h1v2h-1z M26,34h1v1h-1z M33,34h1v1h-1z M38,34h2v1h-2z M42,34h1v1h-1z M47,34h1v1h-1z M51,34h1v1h-1z M23,35h1v1h-1z M25,35h1v1h-1z M32,35h1v3h-1z M36,35h1v6h-1z M39,35h2v2h-2z M41,35h1v1h-1z M45,35h1v1h-1z M48,35h3v1h-3z M20,36h1v1h-1z M26,36h1v1h-1z M29,36h1v3h-1z M30,36h1v1h-1z M33,36h1v1h-1z M37,36h1v4h-1z M38,36h1v1h-1z M47,36h2v1h-2z M52,36h1v2h-1z M24,37h2v1h-2z M31,37h1v1h-1z M34,37h1v4h-1z M39,37h1v1h-1z M42,37h6v1h-6z M49,37h3v1h-3z M20,38h1v2h-1z M22,38h2v1h-2z M26,38h3v1h-3z M30,38h1v6h-1z M33,38h1v2h-1z M35,38h1v1h-1z M42,38h1v1h-1z M44,38h2v1h-2z M48,38h1v3h-1z M50,38h2v2h-2z M21,39h1v3h-1z M27,39h1v1h-1z M38,39h1v1h-1z M40,39h2v1h-2z M43,39h1v3h-1z M45,39h2v1h-2z M49,39h1v2h-1z M22,40h1v1h-1z M26,40h1v1h-1z M29,40h1v4h-1z M31,40h2v1h-2z M42,40h1v1h-1z M44,40h2v1h-2z M47,40h1v1h-1z M51,40h1v1h-1z M20,41h1v4h-1z M28,41h1v5h-1z M31,41h1v1h-1z M33,41h1v1h-1z M35,41h1v4h-1z M38,41h1v4h-1z M41,41h1v3h-1z M46,41h1v2h-1z M52,41h1v1h-1z M24,42h1v2h-1z M26,42h1v1h-1z M32,42h1v1h-1z M36,42h2v1h-2z M50,42h2v1h-2z M23,43h1v1h-1z M25,43h1v1h-1z M33,43h1v1h-1z M39,43h1v1h-1z M42,43h1v1h-1z M45,43h1v2h-1z M48,43h1v7h-1z M49,43h2v1h-2z M52,43h1v1h-1z M26,44h2v1h-2z M31,44h1v1h-1z M34,44h1v1h-1z M37,44h1v1h-1z M40,44h1v1h-1z M43,44h2v1h-2z M46,44h2v1h-2z M49,44h1v1h-1z M32,45h1v2h-1z M39,45h1v1h-1z M44,45h1v4h-1z M50,45h1v3h-1z M52,45h1v1h-1z M20,46h7v1h-7z M30,46h2v1h-2z M33,46h3v1h-3z M38,46h1v1h-1z M40,46h1v1h-1z M42,46h2v1h-2z M46,46h1v1h-1z M51,46h1v1h-1z M20,47h1v6h-1z M26,47h1v6h-1z M28,47h1v4h-1z M29,47h1v1h-1z M31,47h1v1h-1z M35,47h1v3h-1z M36,47h1v1h-1z M41,47h1v1h-1z M52,47h1v3h-1z M22,48h3v3h-3z M30,48h1v5h-1z M32,48h1v1h-1z M38,48h1v1h-1z M40,48h1v5h-1z M42,48h1v1h-1z M45,48h3v1h-3z M49,48h1v2h-1z M51,48h1v2h-1z M29,49h1v1h-1z M31,49h1v1h-1z M36,49h1v1h-1z M39,49h1v1h-1z M47,49h1v4h-1z M50,49h1v3h-1z M33,50h1v1h-1z M37,50h1v1h-1z M42,50h1v1h-1z M44,50h3v1h-3z M31,51h1v1h-1z M36,51h1v2h-1z M38,51h1v2h-1z M41,51h1v1h-1z M48,51h2v1h-2z M21,52h5v1h-5z M28,52h1v1h-1z M32,52h2v1h-2z M37,52h1v1h-1z M43,52h3v1h-3z M48,52h1v1h-1z M51,52h1v1h-1z" fill="#000000"/>
</svg>
