<?xml version="1.0" encoding="UTF-8"?>
<!DOCTYPE svg PUBLIC "-//W3C//DTD SVG 1.1//EN" "http://www.w3.org/Graphics/SVG/1.1/DTD/svg11.dtd">
<svg xmlns="http://www.w3.org/2000/svg" version="1.1" viewBox="0 0 85 85" stroke="none">
	<rect width="100%" height="100%" fill="#ffffff"/>
	<path d="M20,20h7v1h-7z M28,20h4v1h-4z M35,20h1v5h-1z M36,20h2v1h-2z M41,20h1v5h-1z M43,20h1v1h-1z M45,20h1v1h-1z M49,20h2v2h-2z M52,20h1v1h-1z M56,20h1v1h-1z M58,20h7v1h-7z M20,21h1v6h-1z M26,21h1v6h-1z M28,21h1v1h-1z M30,21h1v2h-1z M32,21h3v1h-3z M37,21h1v3h-1z M42,21h1v4h-1z M47,21h1v3h-1z M48,21h1v1h-1z M51,21h1v3h-1z M53,21h1v1h-1z M55,21h1v4h-1z M58,21h1v6h-1z M64,21h1v6h-1z M22,22h3v3h-3z M32,22h1v2h-1z M34,22h1v1h-1z M36,22h1v1h-1z M39,22h1v4h-1z M43,22h1v3h-1z M45,22h1v2h-1z M52,22h1v1h-1z M60,22h3v3h-3z M28,23h2v1h-2z M33,23h1v1h-1z M38,23h1v1h-1z M40,23h1v8h-1z M44,23h1v7h-1z M49,23h1v3h-1z M50,23h1v1h-1z M56,23h1v2h-1z M29,24h1v1h-1z M31,24h1v1h-1z M34,24h1v1h-1z M46,24h1v1h-1z M48,24h1v1h-1z M54,24h1v1h-1z M30,25h1v2h-1z M36,25h3v1h-3z M47,25h1v1h-1z M50,25h1v2h-1z M52,25h2v1h-2z M21,26h5v1h-5z M28,26h1v2h-1z M32,26h1v2h-1z M34,26h1v1h-1z M36,26h1v1h-1z M38,26h1v4h-1z M42,26h1v1h-1z M46,26h1v1h-1z M48,26h1v3h-1z M52,26h1v1h-1z M54,26h1v3h-1z M56,26h1v5h-1z M59,26h5v1h-5z M37,27h1v2h-1z M45,27h1v1h-1z M53,27h1v1h-1z M20,28h1v1h-1z M22,28h2v1h-2z M25,28h3v1h-3z M31,28h1v1h-1z M35,28h2v1h-2z M39,28h1v1h-1z M41,28h3v1h-3z M47,28h1v1h-1z M49,28h1v1h-1z M51,28h1v1h-1z M58,28h1v1h-1z M61,28h1v2h-1z M63,28h2v3h-2z M21,29h1v1h-1z M27,29h2v1h-2z M30,29h1v4h-1z M33,29h1v1h-1z M41,29h1v1h-1z M43,29h1v3h-1z M45,29h1v1h-1z M50,29h1v2h-1z M60,29h1v1h-1z M62,29h1v1h-1z M20,30h1v2h-1z M25,30h2v1h-2z M29,30h1v1h-1z M34,30h3v1h-3z M39,30h1v3h-1z M51,30h1v1h-1z M54,30h1v3h-1z M55,30h1v1h-1z M57,30h1v2h-1z M21,31h2v2h-2z M27,31h1v3h-1z M28,31h1v1h-1z M31,31h1v2h-1z M36,31h1v2h-1z M41,31h2v3h-2z M45,31h1v2h-1z M48,31h2v2h-2z M52,31h2v1h-2z M60,31h1v1h-1z M63,31h1v1h-1z M23,32h2v1h-2z M26,32h1v1h-1z M37,32h2v1h-2z M44,32h1v1h-1z M53,32h1v1h-1z M58,32h1v4h-1z M61,32h1v2h-1z M64,32h1v1h-1z M28,33h2v1h-2z M34,33h1v4h-1z M38,33h1v1h-1z M40,33h1v2h-1z M46,33h1v2h-1z M48,33h1v1h-1z M57,33h1v3h-1z M59,33h1v5h-1z M60,33h1v1h-1z M63,33h1v1h-1z M20,34h7v1h-7z M30,34h2v2h-2z M33,34h1v3h-1z M36,34h2v1h-2z M39,34h1v2h-1z M43,34h1v1h-1z M47,34h1v5h-1z M50,34h1v3h-1z M52,34h1v3h-1z M53,34h1v1h-1z M56,34h1v3h-1z M62,34h1v3h-1z M20,35h2v2h-2z M36,35h1v1h-1z M42,35h1v1h-1z M44,35h2v1h-2z M48,35h2v1h-2z M54,35h1v5h-1z M60,35h2v1h-2z M63,35h2v1h-2z M22,36h2v1h-2z M25,36h4v1h-4z M32,36h1v2h-1z M35,36h1v4h-1z M37,36h1v3h-1z M45,36h2v1h-2z M55,36h1v3h-1z M61,36h1v3h-1z M63,36h1v1h-1z M21,37h1v1h-1z M28,37h4v1h-4z M36,37h1v2h-1z M38,37h3v1h-3z M42,37h4v1h-4z M48,37h2v1h-2z M51,37h1v2h-1z M53,37h1v7h-1z M60,37h1v1h-1z M64,37h1v1h-1z M20,38h1v1h-1z M22,38h2v2h-2z M26,38h2v1h-2z M30,38h1v2h-1z M34,38h1v1h-1z M39,38h4v1h-4z M44,38h1v1h-1z M46,38h1v1h-1z M49,38h1v1h-1z M52,38h1v1h-1z M58,38h1v3h-1z M24,39h1v9h-1z M25,39h1v2h-1z M28,39h1v6h-1z M31,39h2v1h-2z M38,39h1v1h-1z M40,39h1v6h-1z M41,39h1v2h-1z M45,39h1v3h-1z M48,39h1v2h-1z M56,39h1v8h-1z M57,39h1v2h-1z M59,39h2v2h-2z M63,39h2v1h-2z M21,40h1v1h-1z M26,40h2v1h-2z M37,40h1v4h-1z M42,40h3v1h-3z M46,40h1v3h-1z M50,40h1v3h-1z M62,40h1v2h-1z M20,41h1v4h-1z M22,41h1v2h-1z M29,41h4v1h-4z M34,41h2v2h-2z M36,41h1v1h-1z M38,41h1v1h-1z M44,41h1v4h-1z M51,41h1v5h-1z M55,41h1v1h-1z M60,41h2v4h-2z M64,41h1v2h-1z M26,42h1v1h-1z M32,42h2v3h-2z M42,42h1v1h-1z M52,42h1v2h-1z M54,42h1v1h-1z M58,42h1v1h-1z M21,43h1v2h-1z M23,43h1v1h-1z M30,43h2v5h-2z M39,43h1v1h-1z M63,43h1v1h-1z M25,44h3v1h-3z M29,44h1v1h-1z M35,44h1v2h-1z M38,44h1v1h-1z M41,44h3v1h-3z M45,44h1v2h-1z M49,44h1v1h-1z M54,44h2v1h-2z M57,44h3v1h-3z M22,45h1v1h-1z M25,45h1v1h-1z M32,45h1v1h-1z M34,45h1v1h-1z M36,45h1v2h-1z M39,45h1v2h-1z M42,45h1v2h-1z M46,45h3v2h-3z M52,45h1v5h-1z M53,45h1v1h-1z M55,45h1v4h-1z M58,45h1v1h-1z M61,45h1v5h-1z M20,46h1v3h-1z M21,46h1v1h-1z M26,46h2v1h-2z M33,46h1v1h-1z M38,46h1v2h-1z M40,46h1v4h-1z M43,46h2v2h-2z M50,46h1v1h-1z M59,46h2v1h-2z M62,46h1v3h-1z M22,47h1v6h-1z M25,47h1v2h-1z M29,47h1v2h-1z M34,47h1v1h-1z M37,47h1v3h-1z M45,47h1v1h-1z M47,47h1v1h-1z M53,47h1v2h-1z M58,47h1v1h-1z M64,47h1v1h-1z M26,48h1v1h-1z M30,48h1v1h-1z M33,48h1v1h-1z M39,48h1v4h-1z M44,48h1v5h-1z M46,48h1v1h-1z M56,48h1v2h-1z M59,48h2v2h-2z M63,48h1v3h-1z M23,49h1v5h-1z M28,49h1v1h-1z M31,49h1v2h-1z M34,49h2v2h-2z M41,49h1v4h-1z M43,49h1v1h-1z M45,49h1v3h-1z M47,49h3v1h-3z M51,49h1v1h-1z M54,49h1v4h-1z M57,49h2v1h-2z M64,49h1v1h-1z M24,50h1v1h-1z M26,50h1v1h-1z M29,50h2v2h-2z M32,50h2v2h-2z M36,50h1v1h-1z M42,50h1v1h-1z M46,50h1v2h-1z M59,50h1v1h-1z M20,51h2v1h-2z M25,51h1v3h-1z M28,51h1v3h-1z M35,51h1v4h-1z M38,51h1v1h-1z M48,51h3v1h-3z M64,51h1v1h-1z M24,52h1v5h-1z M26,52h2v1h-2z M29,52h1v1h-1z M33,52h1v2h-1z M36,52h1v2h-1z M40,52h1v3h-1z M42,52h1v2h-1z M47,52h2v1h-2z M56,52h1v1h-1z M59,52h4v1h-4z M20,53h2v1h-2z M30,53h1v3h-1z M31,53h1v1h-1z M37,53h2v2h-2z M39,53h1v1h-1z M43,53h1v4h-1z M48,53h1v1h-1z M50,53h1v4h-1z M51,53h1v1h-1z M58,53h1v4h-1z M61,53h2v1h-2z M64,53h1v2h-1z M26,54h1v1h-1z M29,54h1v1h-1z M44,54h2v1h-2z M47,54h1v3h-1z M49,54h1v1h-1z M52,54h4v1h-4z M60,54h1v7h-1z M21,55h3v1h-3z M31,55h1v1h-1z M36,55h1v1h-1z M41,55h2v2h-2z M45,55h1v2h-1z M51,55h1v3h-1z M54,55h2v1h-2z M57,55h1v2h-1z M61,55h1v2h-1z M63,55h1v3h-1z M20,56h1v1h-1z M23,56h1v1h-1z M26,56h2v1h-2z M33,56h1v2h-1z M37,56h1v2h-1z M39,56h2v2h-2z M44,56h1v8h-1z M56,56h1v7h-1z M59,56h1v1h-1z M28,57h1v3h-1z M30,57h1v3h-1z M34,57h1v1h-1z M46,57h1v1h-1z M48,57h2v1h-2z M53,57h1v6h-1z M20,58h7v1h-7z M29,58h1v2h-1z M31,58h1v3h-1z M35,58h1v2h-1z M40,58h1v3h-1z M42,58h1v1h-1z M47,58h1v3h-1z M50,58h1v3h-1z M52,58h1v3h-1z M54,58h2v1h-2z M58,58h1v1h-1z M20,59h1v6h-1z M26,59h1v6h-1z M32,59h2v1h-2z M37,59h1v3h-1z M48,59h2v1h-2z M55,59h1v1h-1z M61,59h2v1h-2z M22,60h3v3h-3z M41,60h3v1h-3z M45,60h1v4h-1z M49,60h1v2h-1z M51,60h1v5h-1z M54,60h1v5h-1z M57,60h3v1h-3z M62,60h3v1h-3z M28,61h2v2h-2z M33,61h1v3h-1z M34,61h1v1h-1z M42,61h2v1h-2z M58,61h1v4h-1z M59,61h1v1h-1z M63,61h2v1h-2z M30,62h3v1h-3z M38,62h2v3h-2z M46,62h1v3h-1z M48,62h1v3h-1z M55,62h1v1h-1z M61,62h3v1h-3z M34,63h1v2h-1z M41,63h3v1h-3z M50,63h1v2h-1z M57,63h1v2h-1z M60,63h2v1h-2z M64,63h1v1h-1z M21,64h5v1h-5z M28,64h2v1h-2z M31,64h2v1h-2z M35,64h1v1h-1z M37,64h1v1h-1z M42,64h1v1h-1z M47,64h1v1h-1z M53,64h1v1h-1z M55,64h1v1h-1z M60,64h1v1h-1z M62,64h1v1h-1z" fill="#000000"/>
</svg>
