<?xml version="1.0" encoding="UTF-8"?>
<!DOCTYPE svg PUBLIC "-//W3C//DTD SVG 1.1//EN" "http://www.w3.org/Graphics/SVG/1.1/DTD/svg11.dtd">
<svg xmlns="http://www.w3.org/2000/svg" version="1.1" viewBox="0 0 77 77" stroke="none">
	<rect width="100%" height="100%" fill="#ffffff"/>
	<path d="M20,20h7v1h-7z M28,20h1v1h-1z M31,20h2v1h-2z M35,20h1v1h-1z M38,20h1v5h-1z M39,20h1v2h-1z M41,20h2v3h-2z M45,20h2v1h-2z M50,20h7v1h-7z M20,21h1v6h-1z M26,21h1v6h-1z M29,21h3v1h-3z M33,21h2v1h-2z M37,21h1v4h-1z M44,21h1v4h-1z M48,21h1v1h-1z M50,21h1v6h-1z M56,21h1v6h-1z M22,22h3v3h-3z M28,22h1v1h-1z M32,22h2v1h-2z M35,22h2v1h-2z M43,22h1v2h-1z M45,22h1v2h-1z M47,22h1v1h-1z M52,22h3v3h-3z M36,23h1v4h-1z M39,23h1v1h-1z M41,23h1v1h-1z M48,23h1v2h-1z M29,24h1v2h-1z M32,24h2v1h-2z M35,24h1v1h-1z M40,24h1v1h-1z M46,24h1v4h-1z M28,25h1v2h-1z M31,25h1v1h-1z M41,25h2v1h-2z M21,26h5v1h-5z M30,26h1v1h-1z M32,26h1v2h-1z M34,26h1v2h-1z M38,26h1v5h-1z M40,26h1v1h-1z M42,26h1v1h-1z M44,26h1v1h-1z M48,26h1v7h-1z M51,26h5v1h-5z M31,27h1v2h-1z M33,27h1v2h-1z M39,27h1v2h-1z M43,27h1v8h-1z M47,27h1v1h-1z M20,28h1v3h-1z M22,28h1v1h-1z M26,28h2v1h-2z M30,28h1v1h-1z M36,28h2v3h-2z M44,28h1v2h-1z M51,28h1v4h-1z M54,28h1v1h-1z M56,28h1v3h-1z M21,29h1v4h-1z M25,29h1v2h-1z M27,29h2v1h-2z M45,29h1v1h-1z M47,29h1v2h-1z M50,29h1v1h-1z M55,29h1v1h-1z M23,30h1v1h-1z M26,30h1v1h-1z M29,30h2v1h-2z M32,30h3v1h-3z M39,30h1v1h-1z M41,30h1v1h-1z M49,30h1v4h-1z M52,30h3v1h-3z M24,31h1v1h-1z M27,31h3v1h-3z M31,31h1v2h-1z M35,31h2v1h-2z M44,31h1v1h-1z M53,31h1v5h-1z M20,32h1v2h-1z M22,32h2v2h-2z M26,32h2v1h-2z M30,32h1v2h-1z M32,32h2v1h-2z M36,32h1v2h-1z M39,32h1v3h-1z M42,32h1v1h-1z M46,32h2v2h-2z M50,32h1v2h-1z M56,32h1v1h-1z M24,33h1v1h-1z M27,33h1v1h-1z M35,33h1v2h-1z M37,33h2v1h-2z M40,33h1v1h-1z M45,33h1v1h-1z M55,33h1v1h-1z M21,34h2v1h-2z M25,34h2v1h-2z M28,34h2v1h-2z M32,34h3v1h-3z M41,34h1v1h-1z M47,34h2v1h-2z M52,34h1v1h-1z M54,34h1v1h-1z M56,34h1v1h-1z M20,35h2v1h-2z M23,35h3v1h-3z M31,35h1v2h-1z M33,35h1v1h-1z M37,35h1v2h-1z M40,35h1v9h-1z M42,35h1v2h-1z M46,35h1v1h-1z M49,35h2v1h-2z M55,35h1v1h-1z M22,36h1v3h-1z M24,36h1v4h-1z M26,36h3v1h-3z M35,36h1v1h-1z M39,36h1v1h-1z M41,36h1v2h-1z M43,36h2v4h-2z M45,36h1v1h-1z M48,36h1v2h-1z M50,36h1v10h-1z M52,36h1v1h-1z M20,37h2v1h-2z M27,37h2v1h-2z M33,37h2v1h-2z M46,37h1v5h-1z M49,37h1v2h-1z M51,37h1v1h-1z M54,37h3v1h-3z M20,38h1v1h-1z M25,38h1v3h-1z M26,38h1v1h-1z M30,38h1v6h-1z M32,38h1v2h-1z M34,38h1v3h-1z M35,38h1v1h-1z M37,38h1v1h-1z M45,38h1v1h-1z M47,38h1v2h-1z M54,38h1v1h-1z M56,38h1v1h-1z M21,39h1v1h-1z M23,39h1v2h-1z M29,39h1v2h-1z M33,39h1v2h-1z M39,39h1v1h-1z M42,39h1v1h-1z M48,39h1v1h-1z M51,39h3v1h-3z M26,40h3v1h-3z M35,40h1v5h-1z M36,40h1v2h-1z M49,40h1v1h-1z M55,40h1v4h-1z M20,41h1v1h-1z M24,41h1v3h-1z M27,41h2v1h-2z M32,41h1v3h-1z M39,41h1v3h-1z M41,41h3v1h-3z M45,41h1v1h-1z M47,41h1v4h-1z M56,41h1v2h-1z M21,42h2v3h-2z M26,42h1v1h-1z M28,42h2v1h-2z M31,42h1v1h-1z M33,42h2v1h-2z M37,42h2v1h-2z M43,42h1v1h-1z M48,42h1v2h-1z M53,42h2v1h-2z M20,43h1v1h-1z M29,43h1v2h-1z M33,43h1v1h-1z M36,43h1v7h-1z M38,43h1v3h-1z M41,43h1v2h-1z M44,43h1v3h-1z M46,43h1v3h-1z M49,43h1v1h-1z M51,43h2v1h-2z M23,44h1v1h-1z M25,44h3v1h-3z M31,44h1v1h-1z M37,44h1v3h-1z M43,44h1v3h-1z M52,44h1v1h-1z M56,44h1v3h-1z M21,45h1v2h-1z M33,45h1v4h-1z M48,45h1v2h-1z M51,45h1v1h-1z M54,45h1v1h-1z M20,46h1v1h-1z M22,46h1v1h-1z M26,46h1v1h-1z M30,46h2v2h-2z M32,46h1v1h-1z M34,46h1v1h-1z M39,46h1v1h-1z M42,46h1v1h-1z M45,46h1v1h-1z M47,46h1v4h-1z M52,46h2v1h-2z M35,47h1v1h-1z M38,47h1v1h-1z M44,47h1v1h-1z M50,47h1v2h-1z M53,47h1v1h-1z M55,47h1v1h-1z M20,48h2v1h-2z M23,48h4v1h-4z M28,48h1v3h-1z M30,48h1v1h-1z M32,48h1v3h-1z M34,48h1v1h-1z M39,48h2v4h-2z M43,48h1v4h-1z M46,48h1v4h-1z M48,48h1v5h-1z M49,48h1v1h-1z M51,48h2v1h-2z M56,48h1v3h-1z M29,49h1v1h-1z M31,49h1v2h-1z M35,49h1v3h-1z M37,49h1v1h-1z M42,49h1v5h-1z M52,49h1v7h-1z M54,49h1v1h-1z M20,50h7v1h-7z M30,50h1v2h-1z M34,50h1v1h-1z M41,50h1v1h-1z M44,50h2v1h-2z M50,50h1v1h-1z M53,50h1v1h-1z M20,51h1v6h-1z M26,51h1v6h-1z M29,51h1v1h-1z M33,51h1v5h-1z M36,51h2v1h-2z M55,51h1v1h-1z M22,52h3v3h-3z M37,52h1v3h-1z M40,52h1v5h-1z M41,52h1v1h-1z M44,52h2v1h-2z M47,52h1v4h-1z M49,52h3v1h-3z M53,52h1v1h-1z M30,53h1v2h-1z M32,53h1v4h-1z M34,53h1v1h-1z M44,53h1v1h-1z M46,53h1v1h-1z M54,53h1v1h-1z M28,54h2v1h-2z M35,54h1v1h-1z M41,54h1v1h-1z M43,54h1v2h-1z M48,54h1v3h-1z M51,54h1v2h-1z M53,54h1v3h-1z M56,54h1v1h-1z M31,55h1v1h-1z M34,55h1v2h-1z M39,55h1v1h-1z M42,55h1v1h-1z M44,55h1v1h-1z M46,55h1v2h-1z M49,55h1v1h-1z M21,56h5v1h-5z M28,56h1v1h-1z M35,56h1v1h-1z M38,56h1v1h-1z M50,56h1v1h-1z M56,56h1v1h-1z" fill="#000000"/>
</svg>
